<svg width="36" height="20" viewBox="0 0 36 20" fill="none" xmlns="http://www.w3.org/2000/svg">
<path d="M2.754 9.045C2.292 9.045 1.851 8.967 1.431 8.811C1.017 8.649 0.693 8.442 0.459 8.19L0.666 7.848C0.888 8.082 1.185 8.274 1.557 8.424C1.935 8.568 2.331 8.64 2.745 8.64C3.345 8.64 3.798 8.526 4.104 8.298C4.41 8.07 4.563 7.773 4.563 7.407C4.563 7.125 4.482 6.9 4.32 6.732C4.158 6.564 3.957 6.435 3.717 6.345C3.477 6.255 3.153 6.162 2.745 6.066C2.283 5.952 1.911 5.841 1.629 5.733C1.353 5.625 1.116 5.46 0.918 5.238C0.726 5.01 0.63 4.707 0.63 4.329C0.63 4.023 0.711 3.744 0.873 3.492C1.035 3.234 1.281 3.03 1.611 2.88C1.947 2.73 2.364 2.655 2.862 2.655C3.21 2.655 3.552 2.706 3.888 2.808C4.224 2.91 4.515 3.048 4.761 3.222L4.59 3.591C4.338 3.417 4.059 3.285 3.753 3.195C3.453 3.105 3.156 3.06 2.862 3.06C2.28 3.06 1.839 3.177 1.539 3.411C1.239 3.645 1.089 3.948 1.089 4.32C1.089 4.602 1.17 4.827 1.332 4.995C1.494 5.163 1.695 5.292 1.935 5.382C2.175 5.472 2.502 5.568 2.916 5.67C3.378 5.784 3.747 5.895 4.023 6.003C4.299 6.111 4.533 6.276 4.725 6.498C4.923 6.714 5.022 7.008 5.022 7.38C5.022 7.686 4.938 7.965 4.77 8.217C4.608 8.469 4.356 8.67 4.014 8.82C3.672 8.97 3.252 9.045 2.754 9.045ZM10.4074 6.759H6.36638C6.37838 7.125 6.47138 7.452 6.64538 7.74C6.81938 8.022 7.05338 8.241 7.34738 8.397C7.64738 8.553 7.98338 8.631 8.35538 8.631C8.66138 8.631 8.94338 8.577 9.20138 8.469C9.46538 8.355 9.68438 8.19 9.85838 7.974L10.1194 8.271C9.91538 8.517 9.65738 8.706 9.34538 8.838C9.03938 8.97 8.70638 9.036 8.34638 9.036C7.87838 9.036 7.46138 8.934 7.09538 8.73C6.72938 8.526 6.44138 8.244 6.23138 7.884C6.02738 7.524 5.92538 7.113 5.92538 6.651C5.92538 6.195 6.02138 5.787 6.21338 5.427C6.41138 5.061 6.68138 4.776 7.02338 4.572C7.36538 4.368 7.74938 4.266 8.17538 4.266C8.60138 4.266 8.98238 4.368 9.31838 4.572C9.66038 4.77 9.92738 5.049 10.1194 5.409C10.3174 5.769 10.4164 6.177 10.4164 6.633L10.4074 6.759ZM8.17538 4.662C7.84538 4.662 7.54838 4.737 7.28438 4.887C7.02038 5.031 6.80738 5.238 6.64538 5.508C6.48938 5.772 6.39938 6.072 6.37538 6.408H9.97538C9.95738 6.072 9.86738 5.772 9.70538 5.508C9.54338 5.244 9.33038 5.037 9.06638 4.887C8.80238 4.737 8.50538 4.662 8.17538 4.662ZM13.2607 4.266C13.8427 4.266 14.2897 4.416 14.6017 4.716C14.9137 5.01 15.0697 5.445 15.0697 6.021V9H14.6377V8.163C14.4877 8.439 14.2687 8.655 13.9807 8.811C13.6927 8.961 13.3477 9.036 12.9457 9.036C12.4237 9.036 12.0097 8.913 11.7037 8.667C11.4037 8.421 11.2537 8.097 11.2537 7.695C11.2537 7.305 11.3917 6.99 11.6677 6.75C11.9497 6.504 12.3967 6.381 13.0087 6.381H14.6197V6.003C14.6197 5.565 14.4997 5.232 14.2597 5.004C14.0257 4.776 13.6807 4.662 13.2247 4.662C12.9127 4.662 12.6127 4.716 12.3247 4.824C12.0427 4.932 11.8027 5.076 11.6047 5.256L11.3797 4.932C11.6137 4.722 11.8957 4.56 12.2257 4.446C12.5557 4.326 12.9007 4.266 13.2607 4.266ZM13.0087 8.667C13.3987 8.667 13.7287 8.577 13.9987 8.397C14.2747 8.217 14.4817 7.956 14.6197 7.614V6.732H13.0177C12.5557 6.732 12.2197 6.816 12.0097 6.984C11.8057 7.152 11.7037 7.383 11.7037 7.677C11.7037 7.983 11.8177 8.226 12.0457 8.406C12.2737 8.58 12.5947 8.667 13.0087 8.667ZM18.7237 9.045C18.2617 9.045 17.8207 8.967 17.4007 8.811C16.9867 8.649 16.6627 8.442 16.4287 8.19L16.6357 7.848C16.8577 8.082 17.1547 8.274 17.5267 8.424C17.9047 8.568 18.3007 8.64 18.7147 8.64C19.3147 8.64 19.7677 8.526 20.0737 8.298C20.3797 8.07 20.5327 7.773 20.5327 7.407C20.5327 7.125 20.4517 6.9 20.2897 6.732C20.1277 6.564 19.9267 6.435 19.6867 6.345C19.4467 6.255 19.1227 6.162 18.7147 6.066C18.2527 5.952 17.8807 5.841 17.5987 5.733C17.3227 5.625 17.0857 5.46 16.8877 5.238C16.6957 5.01 16.5997 4.707 16.5997 4.329C16.5997 4.023 16.6807 3.744 16.8427 3.492C17.0047 3.234 17.2507 3.03 17.5807 2.88C17.9167 2.73 18.3337 2.655 18.8317 2.655C19.1797 2.655 19.5217 2.706 19.8577 2.808C20.1937 2.91 20.4847 3.048 20.7307 3.222L20.5597 3.591C20.3077 3.417 20.0287 3.285 19.7227 3.195C19.4227 3.105 19.1257 3.06 18.8317 3.06C18.2497 3.06 17.8087 3.177 17.5087 3.411C17.2087 3.645 17.0587 3.948 17.0587 4.32C17.0587 4.602 17.1397 4.827 17.3017 4.995C17.4637 5.163 17.6647 5.292 17.9047 5.382C18.1447 5.472 18.4717 5.568 18.8857 5.67C19.3477 5.784 19.7167 5.895 19.9927 6.003C20.2687 6.111 20.5027 6.276 20.6947 6.498C20.8927 6.714 20.9917 7.008 20.9917 7.38C20.9917 7.686 20.9077 7.965 20.7397 8.217C20.5777 8.469 20.3257 8.67 19.9837 8.82C19.6417 8.97 19.2217 9.045 18.7237 9.045ZM22.4081 4.302H22.8581V9H22.4081V4.302ZM22.6331 3.159C22.5311 3.159 22.4441 3.126 22.3721 3.06C22.3001 2.988 22.2641 2.901 22.2641 2.799C22.2641 2.697 22.3001 2.61 22.3721 2.538C22.4441 2.466 22.5311 2.43 22.6331 2.43C22.7351 2.43 22.8221 2.466 22.8941 2.538C22.9661 2.604 23.0021 2.688 23.0021 2.79C23.0021 2.892 22.9661 2.979 22.8941 3.051C22.8221 3.123 22.7351 3.159 22.6331 3.159ZM28.9308 2.322V9H28.4898V7.893C28.3038 8.259 28.0428 8.541 27.7068 8.739C27.3708 8.937 26.9898 9.036 26.5638 9.036C26.1258 9.036 25.7298 8.934 25.3758 8.73C25.0218 8.526 24.7428 8.244 24.5388 7.884C24.3408 7.524 24.2418 7.113 24.2418 6.651C24.2418 6.189 24.3408 5.778 24.5388 5.418C24.7428 5.052 25.0218 4.77 25.3758 4.572C25.7298 4.368 26.1258 4.266 26.5638 4.266C26.9838 4.266 27.3588 4.365 27.6888 4.563C28.0248 4.761 28.2888 5.037 28.4808 5.391V2.322H28.9308ZM26.5908 8.631C26.9508 8.631 27.2718 8.547 27.5538 8.379C27.8418 8.211 28.0668 7.977 28.2288 7.677C28.3968 7.377 28.4808 7.035 28.4808 6.651C28.4808 6.267 28.3968 5.925 28.2288 5.625C28.0668 5.325 27.8418 5.091 27.5538 4.923C27.2718 4.755 26.9508 4.671 26.5908 4.671C26.2308 4.671 25.9068 4.755 25.6188 4.923C25.3368 5.091 25.1118 5.325 24.9438 5.625C24.7818 5.925 24.7008 6.267 24.7008 6.651C24.7008 7.035 24.7818 7.377 24.9438 7.677C25.1118 7.977 25.3368 8.211 25.6188 8.379C25.9068 8.547 26.2308 8.631 26.5908 8.631ZM34.797 6.759H30.756C30.768 7.125 30.861 7.452 31.035 7.74C31.209 8.022 31.443 8.241 31.737 8.397C32.037 8.553 32.373 8.631 32.745 8.631C33.051 8.631 33.333 8.577 33.591 8.469C33.855 8.355 34.074 8.19 34.248 7.974L34.509 8.271C34.305 8.517 34.047 8.706 33.735 8.838C33.429 8.97 33.096 9.036 32.736 9.036C32.268 9.036 31.851 8.934 31.485 8.73C31.119 8.526 30.831 8.244 30.621 7.884C30.417 7.524 30.315 7.113 30.315 6.651C30.315 6.195 30.411 5.787 30.603 5.427C30.801 5.061 31.071 4.776 31.413 4.572C31.755 4.368 32.139 4.266 32.565 4.266C32.991 4.266 33.372 4.368 33.708 4.572C34.05 4.77 34.317 5.049 34.509 5.409C34.707 5.769 34.806 6.177 34.806 6.633L34.797 6.759ZM32.565 4.662C32.235 4.662 31.938 4.737 31.674 4.887C31.41 5.031 31.197 5.238 31.035 5.508C30.879 5.772 30.789 6.072 30.765 6.408H34.365C34.347 6.072 34.257 5.772 34.095 5.508C33.933 5.244 33.72 5.037 33.456 4.887C33.192 4.737 32.895 4.662 32.565 4.662Z" fill="black"/>
<path d="M28.9946 12L7.09276 16.6849L29.1492 18.9983L21.98 15.7959L28.9946 12Z" stroke="black"/>
</svg>
