<svg width="130" height="53" viewBox="0 0 130 53" fill="none" xmlns="http://www.w3.org/2000/svg">
<path d="M33 45L17.7329 8L2 45L17.3357 34.5274L33 45Z" stroke="black"/>
<path d="M39.754 21.132C38.61 21.132 37.51 20.9487 36.454 20.582C35.4127 20.2153 34.606 19.7313 34.034 19.13L34.672 17.876C35.2293 18.4333 35.97 18.888 36.894 19.24C37.818 19.5773 38.7713 19.746 39.754 19.746C41.1327 19.746 42.1667 19.4967 42.856 18.998C43.5453 18.4847 43.89 17.8247 43.89 17.018C43.89 16.402 43.6993 15.9107 43.318 15.544C42.9513 15.1773 42.4967 14.8987 41.954 14.708C41.4113 14.5027 40.656 14.2827 39.688 14.048C38.5293 13.7547 37.6053 13.476 36.916 13.212C36.2267 12.9333 35.6327 12.5153 35.134 11.958C34.65 11.4007 34.408 10.6453 34.408 9.692C34.408 8.91467 34.6133 8.21067 35.024 7.58C35.4347 6.93467 36.0653 6.42133 36.916 6.04C37.7667 5.65867 38.8227 5.468 40.084 5.468C40.964 5.468 41.822 5.59267 42.658 5.842C43.5087 6.07667 44.242 6.40667 44.858 6.832L44.308 8.13C43.6627 7.70467 42.9733 7.38933 42.24 7.184C41.5067 6.964 40.788 6.854 40.084 6.854C38.7347 6.854 37.7153 7.118 37.026 7.646C36.3513 8.15933 36.014 8.82667 36.014 9.648C36.014 10.264 36.1973 10.7627 36.564 11.144C36.9453 11.5107 37.4147 11.7967 37.972 12.002C38.544 12.1927 39.3067 12.4053 40.26 12.64C41.3893 12.9187 42.2987 13.1973 42.988 13.476C43.692 13.74 44.286 14.1507 44.77 14.708C45.254 15.2507 45.496 15.9913 45.496 16.93C45.496 17.7073 45.2833 18.4187 44.858 19.064C44.4473 19.6947 43.8093 20.2007 42.944 20.582C42.0787 20.9487 41.0153 21.132 39.754 21.132ZM58.7892 15.698H49.1092C49.1972 16.9007 49.6592 17.876 50.4952 18.624C51.3312 19.3573 52.3872 19.724 53.6632 19.724C54.3818 19.724 55.0418 19.5993 55.6432 19.35C56.2445 19.086 56.7652 18.7047 57.2052 18.206L58.0852 19.218C57.5718 19.834 56.9265 20.3033 56.1492 20.626C55.3865 20.9487 54.5432 21.11 53.6192 21.11C52.4312 21.11 51.3752 20.8607 50.4512 20.362C49.5418 19.8487 48.8305 19.1447 48.3172 18.25C47.8038 17.3553 47.5472 16.3433 47.5472 15.214C47.5472 14.0847 47.7892 13.0727 48.2732 12.178C48.7718 11.2833 49.4465 10.5867 50.2972 10.088C51.1625 9.58933 52.1305 9.34 53.2012 9.34C54.2718 9.34 55.2325 9.58933 56.0832 10.088C56.9338 10.5867 57.6012 11.2833 58.0852 12.178C58.5692 13.058 58.8112 14.07 58.8112 15.214L58.7892 15.698ZM53.2012 10.682C52.0865 10.682 51.1478 11.0413 50.3852 11.76C49.6372 12.464 49.2118 13.388 49.1092 14.532H57.3152C57.2125 13.388 56.7798 12.464 56.0172 11.76C55.2692 11.0413 54.3305 10.682 53.2012 10.682ZM65.7163 9.34C67.2269 9.34 68.3856 9.72133 69.1922 10.484C69.9989 11.232 70.4023 12.3467 70.4023 13.828V21H68.9063V19.196C68.5543 19.7973 68.0336 20.2667 67.3443 20.604C66.6696 20.9413 65.8629 21.11 64.9242 21.11C63.6336 21.11 62.6069 20.802 61.8442 20.186C61.0816 19.57 60.7002 18.756 60.7002 17.744C60.7002 16.7613 61.0522 15.9693 61.7562 15.368C62.4749 14.7667 63.6116 14.466 65.1662 14.466H68.8402V13.762C68.8402 12.7647 68.5616 12.0093 68.0043 11.496C67.4469 10.968 66.6329 10.704 65.5623 10.704C64.8289 10.704 64.1249 10.8287 63.4502 11.078C62.7756 11.3127 62.1962 11.6427 61.7122 12.068L61.0082 10.902C61.5949 10.4033 62.2989 10.022 63.1202 9.758C63.9416 9.47933 64.8069 9.34 65.7163 9.34ZM65.1662 19.878C66.0463 19.878 66.8016 19.68 67.4323 19.284C68.0629 18.8733 68.5322 18.2867 68.8402 17.524V15.632H65.2103C63.2302 15.632 62.2402 16.3213 62.2402 17.7C62.2402 18.3747 62.4969 18.91 63.0102 19.306C63.5236 19.6873 64.2422 19.878 65.1662 19.878ZM79.2208 21.132C78.0768 21.132 76.9768 20.9487 75.9208 20.582C74.8795 20.2153 74.0728 19.7313 73.5008 19.13L74.1388 17.876C74.6961 18.4333 75.4368 18.888 76.3608 19.24C77.2848 19.5773 78.2381 19.746 79.2208 19.746C80.5995 19.746 81.6335 19.4967 82.3228 18.998C83.0121 18.4847 83.3568 17.8247 83.3568 17.018C83.3568 16.402 83.1661 15.9107 82.7848 15.544C82.4181 15.1773 81.9635 14.8987 81.4208 14.708C80.8781 14.5027 80.1228 14.2827 79.1548 14.048C77.9961 13.7547 77.0721 13.476 76.3828 13.212C75.6935 12.9333 75.0995 12.5153 74.6008 11.958C74.1168 11.4007 73.8748 10.6453 73.8748 9.692C73.8748 8.91467 74.0801 8.21067 74.4908 7.58C74.9015 6.93467 75.5321 6.42133 76.3828 6.04C77.2335 5.65867 78.2895 5.468 79.5508 5.468C80.4308 5.468 81.2888 5.59267 82.1248 5.842C82.9755 6.07667 83.7088 6.40667 84.3248 6.832L83.7748 8.13C83.1295 7.70467 82.4401 7.38933 81.7068 7.184C80.9735 6.964 80.2548 6.854 79.5508 6.854C78.2015 6.854 77.1821 7.118 76.4928 7.646C75.8181 8.15933 75.4808 8.82667 75.4808 9.648C75.4808 10.264 75.6641 10.7627 76.0308 11.144C76.4121 11.5107 76.8815 11.7967 77.4388 12.002C78.0108 12.1927 78.7735 12.4053 79.7268 12.64C80.8561 12.9187 81.7655 13.1973 82.4548 13.476C83.1588 13.74 83.7528 14.1507 84.2368 14.708C84.7208 15.2507 84.9628 15.9913 84.9628 16.93C84.9628 17.7073 84.7501 18.4187 84.3248 19.064C83.9141 19.6947 83.2761 20.2007 82.4108 20.582C81.5455 20.9487 80.4821 21.132 79.2208 21.132ZM88.18 9.428H89.742V21H88.18V9.428ZM88.972 6.898C88.6493 6.898 88.378 6.788 88.158 6.568C87.938 6.348 87.828 6.084 87.828 5.776C87.828 5.48267 87.938 5.226 88.158 5.006C88.378 4.786 88.6493 4.676 88.972 4.676C89.2946 4.676 89.566 4.786 89.786 5.006C90.006 5.21133 90.116 5.46067 90.116 5.754C90.116 6.07667 90.006 6.348 89.786 6.568C89.566 6.788 89.2946 6.898 88.972 6.898ZM104.648 4.676V21H103.152V18.712C102.683 19.4893 102.06 20.0833 101.282 20.494C100.52 20.9047 99.6542 21.11 98.6862 21.11C97.6008 21.11 96.6182 20.8607 95.7382 20.362C94.8582 19.8633 94.1688 19.1667 93.6702 18.272C93.1715 17.3773 92.9222 16.358 92.9222 15.214C92.9222 14.07 93.1715 13.0507 93.6702 12.156C94.1688 11.2613 94.8582 10.572 95.7382 10.088C96.6182 9.58933 97.6008 9.34 98.6862 9.34C99.6248 9.34 100.468 9.538 101.216 9.934C101.979 10.3153 102.602 10.88 103.086 11.628V4.676H104.648ZM98.8182 19.724C99.6248 19.724 100.351 19.5407 100.996 19.174C101.656 18.7927 102.17 18.2573 102.536 17.568C102.918 16.8787 103.108 16.094 103.108 15.214C103.108 14.334 102.918 13.5493 102.536 12.86C102.17 12.1707 101.656 11.6427 100.996 11.276C100.351 10.8947 99.6248 10.704 98.8182 10.704C97.9968 10.704 97.2562 10.8947 96.5962 11.276C95.9508 11.6427 95.4375 12.1707 95.0562 12.86C94.6895 13.5493 94.5062 14.334 94.5062 15.214C94.5062 16.094 94.6895 16.8787 95.0562 17.568C95.4375 18.2573 95.9508 18.7927 96.5962 19.174C97.2562 19.5407 97.9968 19.724 98.8182 19.724ZM119.074 15.698H109.394C109.482 16.9007 109.944 17.876 110.78 18.624C111.616 19.3573 112.672 19.724 113.948 19.724C114.667 19.724 115.327 19.5993 115.928 19.35C116.53 19.086 117.05 18.7047 117.49 18.206L118.37 19.218C117.857 19.834 117.212 20.3033 116.434 20.626C115.672 20.9487 114.828 21.11 113.904 21.11C112.716 21.11 111.66 20.8607 110.736 20.362C109.827 19.8487 109.116 19.1447 108.602 18.25C108.089 17.3553 107.832 16.3433 107.832 15.214C107.832 14.0847 108.074 13.0727 108.558 12.178C109.057 11.2833 109.732 10.5867 110.582 10.088C111.448 9.58933 112.416 9.34 113.486 9.34C114.557 9.34 115.518 9.58933 116.368 10.088C117.219 10.5867 117.886 11.2833 118.37 12.178C118.854 13.058 119.096 14.07 119.096 15.214L119.074 15.698ZM113.486 10.682C112.372 10.682 111.433 11.0413 110.67 11.76C109.922 12.464 109.497 13.388 109.394 14.532H117.6C117.498 13.388 117.065 12.464 116.302 11.76C115.554 11.0413 114.616 10.682 113.486 10.682Z" fill="black"/>
<path d="M129.354 26.3536C129.549 26.1583 129.549 25.8417 129.354 25.6464L126.172 22.4645C125.976 22.2692 125.66 22.2692 125.464 22.4645C125.269 22.6597 125.269 22.9763 125.464 23.1716L128.293 26L125.464 28.8284C125.269 29.0237 125.269 29.3403 125.464 29.5355C125.66 29.7308 125.976 29.7308 126.172 29.5355L129.354 26.3536ZM36 26.5H129V25.5H36V26.5Z" fill="black"/>
<path d="M75.114 31.6V47H74.366V39.52H63.564V47H62.816V31.6H63.564V38.838H74.366V31.6H75.114ZM84.6934 47.066C83.6374 47.066 82.6768 46.824 81.8114 46.34C80.9608 45.8413 80.2934 45.152 79.8094 44.272C79.3254 43.392 79.0834 42.3947 79.0834 41.28C79.0834 40.1653 79.3254 39.168 79.8094 38.288C80.2934 37.408 80.9608 36.726 81.8114 36.242C82.6768 35.7433 83.6374 35.494 84.6934 35.494C85.7641 35.494 86.7248 35.7433 87.5754 36.242C88.4261 36.726 89.0934 37.408 89.5775 38.288C90.0615 39.168 90.3035 40.1653 90.3035 41.28C90.3035 42.3947 90.0615 43.392 89.5775 44.272C89.0934 45.152 88.4261 45.8413 87.5754 46.34C86.7248 46.824 85.7641 47.066 84.6934 47.066ZM84.6934 46.406C85.6174 46.406 86.4461 46.1933 87.1794 45.768C87.9274 45.328 88.5141 44.7193 88.9394 43.942C89.3648 43.1647 89.5775 42.2773 89.5775 41.28C89.5775 40.2827 89.3648 39.4027 88.9394 38.64C88.5141 37.8627 87.9274 37.2613 87.1794 36.836C86.4461 36.396 85.6174 36.176 84.6934 36.176C83.7694 36.176 82.9334 36.396 82.1854 36.836C81.4521 37.2613 80.8728 37.8627 80.4474 38.64C80.0221 39.4027 79.8094 40.2827 79.8094 41.28C79.8094 42.2773 80.0221 43.1647 80.4474 43.942C80.8728 44.7193 81.4521 45.328 82.1854 45.768C82.9334 46.1933 83.7694 46.406 84.6934 46.406ZM99.2851 46.274C99.0211 46.5233 98.6838 46.7213 98.2731 46.868C97.8625 47 97.4371 47.066 96.9971 47.066C96.0731 47.066 95.3545 46.8093 94.8411 46.296C94.3425 45.768 94.0931 45.0493 94.0931 44.14V36.22H91.9371V35.582H94.0931V33.074H94.8191V35.582H98.5811V36.22H94.8191V44.03C94.8191 44.8073 95.0098 45.4013 95.3911 45.812C95.7725 46.2227 96.3298 46.428 97.0631 46.428C97.7965 46.428 98.4125 46.2007 98.9111 45.746L99.2851 46.274ZM111.497 41.39H101.487C101.501 42.358 101.729 43.2233 102.169 43.986C102.609 44.7487 103.21 45.3427 103.973 45.768C104.75 46.1933 105.615 46.406 106.569 46.406C107.346 46.406 108.065 46.2667 108.725 45.988C109.385 45.6947 109.927 45.2693 110.353 44.712L110.815 45.196C110.301 45.7973 109.678 46.2593 108.945 46.582C108.211 46.9047 107.419 47.066 106.569 47.066C105.454 47.066 104.457 46.824 103.577 46.34C102.711 45.8413 102.029 45.152 101.531 44.272C101.032 43.392 100.783 42.3947 100.783 41.28C100.783 40.1653 101.01 39.168 101.465 38.288C101.934 37.408 102.579 36.726 103.401 36.242C104.222 35.7433 105.139 35.494 106.151 35.494C107.148 35.494 108.05 35.736 108.857 36.22C109.678 36.704 110.323 37.3787 110.793 38.244C111.262 39.1093 111.497 40.092 111.497 41.192V41.39ZM106.151 36.154C105.3 36.154 104.53 36.352 103.841 36.748C103.151 37.144 102.601 37.7013 102.191 38.42C101.78 39.124 101.553 39.916 101.509 40.796H110.815C110.756 39.916 110.514 39.124 110.089 38.42C109.678 37.7013 109.128 37.144 108.439 36.748C107.764 36.352 107.001 36.154 106.151 36.154ZM115.079 30.676H115.805V47H115.079V30.676ZM123.436 47.066C122.512 47.066 121.639 46.9267 120.818 46.648C120.011 46.3693 119.381 46.0027 118.926 45.548L119.278 44.976C119.747 45.3867 120.349 45.7313 121.082 46.01C121.83 46.2887 122.622 46.428 123.458 46.428C124.69 46.428 125.599 46.2227 126.186 45.812C126.773 45.3867 127.066 44.8 127.066 44.052C127.066 43.524 126.905 43.106 126.582 42.798C126.274 42.49 125.885 42.2627 125.416 42.116C124.947 41.9693 124.316 41.8227 123.524 41.676C122.6 41.5 121.859 41.324 121.302 41.148C120.759 40.9573 120.297 40.6567 119.916 40.246C119.535 39.8353 119.344 39.2633 119.344 38.53C119.344 37.6647 119.696 36.946 120.4 36.374C121.119 35.7873 122.16 35.494 123.524 35.494C124.228 35.494 124.932 35.604 125.636 35.824C126.34 36.0293 126.912 36.308 127.352 36.66L126.978 37.232C126.523 36.88 125.988 36.616 125.372 36.44C124.771 36.2493 124.147 36.154 123.502 36.154C122.373 36.154 121.522 36.374 120.95 36.814C120.378 37.2393 120.092 37.804 120.092 38.508C120.092 39.0653 120.253 39.5053 120.576 39.828C120.899 40.1507 121.295 40.3927 121.764 40.554C122.248 40.7007 122.901 40.8547 123.722 41.016C124.602 41.1773 125.313 41.3533 125.856 41.544C126.399 41.72 126.853 42.006 127.22 42.402C127.601 42.798 127.792 43.348 127.792 44.052C127.792 44.976 127.418 45.7093 126.67 46.252C125.922 46.7947 124.844 47.066 123.436 47.066Z" fill="black"/>
</svg>
